<?xml version="1.0" standalone="no"?><!DOCTYPE svg PUBLIC "-//W3C//DTD SVG 1.1//EN" "http://www.w3.org/Graphics/SVG/1.1/DTD/svg11.dtd"><svg t="1675844692587" class="icon" viewBox="0 0 1024 1024" version="1.1" xmlns="http://www.w3.org/2000/svg" p-id="17321" xmlns:xlink="http://www.w3.org/1999/xlink" width="200" height="200"><path d="M512.002 0C794.772 0 1024 229.228 1024 512.002 1024 794.772 794.772 1024 512.002 1024 229.228 1024 0 794.772 0 512.002 0 229.228 229.228 0 512.002 0z" fill="#B1E3FB" p-id="17322"></path><path d="M296.718 110.234c64.384 0 116.58 52.184 116.58 116.574 0 64.386-52.196 116.576-116.58 116.576-64.382 0-116.572-52.19-116.572-116.576 0.002-64.39 52.192-116.574 116.572-116.574z" fill="#A2DFFB" p-id="17323"></path><path d="M296.718 127.566c54.808 0 99.242 44.438 99.242 99.242 0 54.806-44.434 99.238-99.242 99.238-54.806 0-99.24-44.432-99.24-99.238 0-54.804 44.434-99.242 99.24-99.242z" fill="#98DBFB" p-id="17324"></path><path d="M945.106 288.972c5.438 0 10.56 0.876 15.09 2.434 3.226-2.154 7.234-3.758 11.71-4.61a510.27 510.27 0 0 1 24.752 59.74c-1.76 0.316-3.602 0.486-5.508 0.486-5.968 0-11.364-1.654-15.27-4.33-3.892 2.676-9.29 4.33-15.268 4.33-5.672 0-10.84-1.498-14.68-3.94-3.922 2.916-9.57 4.754-15.86 4.754-5.882 0-11.21-1.604-15.082-4.204-1.772 0.266-3.624 0.406-5.512 0.406-14.142 0-25.6-7.792-25.6-17.404 0-9.626 11.458-17.414 25.6-17.414 0.764 0 1.54 0.026 2.29 0.072 1.814-11.428 16.05-20.32 33.338-20.32zM529.39 215.932c6.272 0 12.196 1.016 17.432 2.818 5.672-3.78 13.446-6.112 22.012-6.112 14.842 0 27.282 6.98 30.618 16.382 7.416 1.516 13.368 5.322 16.078 10.212 0.894-0.068 1.802-0.096 2.714-0.096 13.712 0 24.83 7.558 24.83 16.886 0 9.324-11.12 16.882-24.83 16.882-4.276 0-8.294-0.728-11.802-2.02-3.02 7.014-12.548 12.142-23.846 12.142-6.898 0-13.138-1.916-17.64-5.008-4.498 3.092-10.744 5.008-17.648 5.008-6.554 0-12.524-1.734-16.968-4.56-4.53 3.382-11.062 5.498-18.326 5.498-6.794 0-12.946-1.854-17.426-4.856a43.284 43.284 0 0 1-6.368 0.462c-16.346 0-29.592-9.004-29.592-20.112 0-11.114 13.244-20.116 29.592-20.116 0.888 0 1.768 0.028 2.642 0.082 2.1-13.206 18.544-23.492 38.528-23.492z" fill="#E2F4FD" p-id="17325"></path><path d="M527.196 72.68s11.838-2.536 21.736-0.644c9.928 1.904 20.268 10.136 31.456 10.768s8.864-3.59 8.864-3.59-7.174 1.062-9.08-5.058c-1.892-6.12 5.916-10.986 17.94-19.414 12.038-8.444 14.358-16.888 12.038-22.174 0 0-2.12 3.382-12.038 8.66-9.918 5.276-17.088 14.99-24.9 21.942-7.806 6.974-8.236 7.392-15.622 5.916-7.378-1.48-23.216-3.794-30.394 3.594zM427.898 157.92s11.83-2.538 21.732-0.64c9.924 1.9 20.268 10.132 31.46 10.768 11.184 0.624 8.856-3.594 8.856-3.594s-7.174 1.062-9.076-5.058c-1.896-6.126 5.916-10.986 17.936-19.414 12.038-8.444 14.362-16.888 12.038-22.174 0 0-2.112 3.38-12.038 8.658-9.92 5.284-17.09 14.996-24.892 21.944-7.816 6.972-8.24 7.392-15.63 5.916-7.376-1.48-23.206-3.796-30.386 3.594zM649.556 126.306s11.83-2.53 21.732-0.638c9.928 1.898 20.268 10.134 31.46 10.77 11.188 0.624 8.86-3.594 8.86-3.594s-7.174 1.062-9.084-5.062c-1.888-6.122 5.92-10.982 17.94-19.412 12.04-8.442 14.362-16.89 12.04-22.168 0 0-2.118 3.376-12.04 8.654-9.916 5.282-17.084 14.994-24.892 21.944-7.816 6.976-8.236 7.39-15.626 5.914-7.378-1.474-23.21-3.794-30.39 3.592z" fill="" p-id="17326"></path><path d="M0.15 523.674h1023.698C1017.642 801.052 790.87 1024 512.002 1024 233.13 1024 6.358 801.052 0.15 523.674z" fill="#7FDDE9" p-id="17327"></path><path d="M18.398 648.378h987.204C945.902 864.94 747.54 1024 512.002 1024 276.46 1024 78.098 864.94 18.398 648.378z" fill="#4CCFDF" p-id="17328"></path><path d="M69.782 770.154h884.436C865.388 921.994 700.618 1024 512.002 1024c-188.62 0-353.39-102.006-442.22-253.846z" fill="#26C5D9" p-id="17329"></path><path d="M163.138 886.708H860.86C769.428 971.87 646.806 1024 512.002 1024c-134.808 0-257.43-52.13-348.864-137.292z" fill="#31BBCB" p-id="17330"></path><path d="M296.718 146.214c44.51 0 80.598 36.082 80.598 80.594 0 44.506-36.086 80.59-80.598 80.59-44.506 0-80.59-36.082-80.59-80.59 0.002-44.51 36.084-80.594 80.59-80.594z" fill="#8CD7FA" p-id="17331"></path><path d="M904.242 392.494c-126.686 52.84-136.934 113.162-136.934 113.162s-76.866-32.838-174.394-53.586c-1.192-30.5 11.346-72.218 11.346-72.218-45.142 19.03-78.688 48.01-90.712 59.262-21.308-2.322-42.868-3.67-64.198-3.63-153.19 0.238-321.558 92.416-321.558 92.416s69.142 14.422 103.446 9.608l100.334 1.708c3.554 3.612 42.084-6.096 57.032-1.264 14.958 4.836 106.624 18.01 128.966 17.028 22.342-0.966 134.758-23.286 162.518-21.922 27.768 1.356 87.984 8.552 102.702 11.672 0 0 9.252 37.476 26.54 70.268 45.006 51.736 101.224 51.416 101.224 51.416-38.276-48.97-67.51-136.958-67.51-136.958-0.914-29.5 61.198-136.962 61.198-136.962z m-260.732 187.38s26.318 20.96 31.064 18.28l-8-21.394-23.064 3.114z m-310.564 22.494s-30.356 55.168 35.472 96.336c0 0 4.344-43.486 32.252-78.912l-67.724-17.424z" fill="#4EC1F5" p-id="17332"></path><path d="M135.852 523.674c-5.228 2.676-8.06 4.226-8.06 4.226s69.142 14.422 103.446 9.608c0 0 9.698-6.222 22.21-13.834H135.852z m188.334 0c3.292 7.58 6.002 14.136 7.386 15.544 3.554 3.612 42.084-6.096 57.032-1.264 14.958 4.836 106.624 18.01 128.966 17.028 22.342-0.966 134.758-23.286 162.518-21.922 27.768 1.356 87.984 8.552 102.702 11.672 0 0 9.252 37.476 26.54 70.268 45.006 51.736 101.224 51.416 101.224 51.416-38.276-48.97-67.51-136.958-67.51-136.958-0.05-1.684 0.104-3.628 0.44-5.784H324.186z m319.324 56.2s26.318 20.96 31.064 18.28l-8-21.394-23.064 3.114z m-310.564 22.494s-30.356 55.168 35.472 96.336c0 0 4.344-43.486 32.252-78.912l-67.724-17.424z" fill="#0095A5" p-id="17333"></path><path d="M194.222 568.752c26.434 13.858 52.662 24.854 78.422 33.458 51.696 17.244 101.52 24.812 147.416 26.368 92.802 4.064 170.636-15.658 213.15-34.006a527.704 527.704 0 0 0 33.948-13.57l0.904-0.398c17.066-6.302 32.352-11.16 45.56-14.876 31.092-8.064 60.088-12.616 60.088-12.616 9.658 26.238 22.142 46.39 35.62 61.888-17.29-32.792-26.536-70.268-26.536-70.268-14.718-3.12-74.932-10.316-102.702-11.672-27.762-1.364-140.176 20.95-162.518 21.922-22.342 0.976-114.008-12.192-128.966-17.024-14.95-4.832-53.478 4.872-57.026 1.26l-100.34-1.708c-34.304 4.814-103.446-9.608-103.446-9.608 22.188 15.796 44.376 29.296 66.426 40.85z" fill="#B9DDF9" p-id="17334"></path><path d="M194.222 568.752c26.434 13.858 52.662 24.854 78.422 33.458 51.696 17.244 101.52 24.812 147.416 26.368 92.802 4.064 170.636-15.658 213.15-34.006a527.704 527.704 0 0 0 33.948-13.57l0.904-0.398c17.066-6.302 32.352-11.16 45.56-14.876 31.092-8.064 60.088-12.616 60.088-12.616 9.658 26.238 22.142 46.39 35.62 61.888-17.29-32.792-26.536-70.268-26.536-70.268-14.718-3.12-74.932-10.316-102.702-11.672-27.762-1.364-140.176 20.95-162.518 21.922-22.342 0.976-114.008-12.192-128.966-17.024-14.95-4.832-53.478 4.872-57.026 1.26-1.384-1.406-4.096-7.962-7.392-15.544h-70.742a1211.506 1211.506 0 0 0-22.206 13.834c-34.304 4.814-103.446-9.608-103.446-9.608 22.188 15.798 44.376 29.298 66.426 40.852z" fill="#1AB3C5" p-id="17335"></path><path d="M397.358 539.73s17.01 135.16 172.53 129.498c0 0-48.598-58.764-66.846-118.26 0.002 0-49.498-18.82-105.684-11.238z" fill="#0095A5" p-id="17336"></path><path d="M786.532 141.602c6.27 0 12.19 1.012 17.432 2.808 5.676-3.77 13.44-6.106 22.012-6.106 14.842 0 27.28 6.984 30.616 16.38 7.414 1.518 13.368 5.32 16.076 10.214 0.892-0.07 1.8-0.096 2.712-0.096 6.652 0 12.696 1.778 17.152 4.672a520.554 520.554 0 0 1 6.754 7.624c0.604 1.462 0.934 3 0.934 4.59 0 9.324-11.128 16.886-24.838 16.886-4.27 0-8.292-0.732-11.798-2.028-3.024 7.018-12.552 12.146-23.844 12.146-6.904 0-13.144-1.916-17.642-5.012-4.502 3.096-10.746 5.012-17.65 5.012-6.552 0-12.526-1.734-16.964-4.556-4.536 3.374-11.068 5.494-18.326 5.494-6.794 0-12.95-1.85-17.428-4.862a42.518 42.518 0 0 1-6.372 0.474c-16.346 0-29.586-9.008-29.586-20.116 0-11.11 13.238-20.12 29.586-20.12 0.89 0 1.774 0.032 2.642 0.086 2.098-13.21 18.548-23.49 38.532-23.49zM152.56 262.648c6.272 0 12.196 1.022 17.434 2.814 5.674-3.776 13.44-6.108 22.012-6.108 14.842 0 27.28 6.98 30.616 16.382 7.418 1.516 13.368 5.318 16.08 10.212 0.892-0.068 1.8-0.096 2.712-0.096 13.708 0 24.834 7.558 24.834 16.886 0 9.324-11.128 16.882-24.834 16.882-4.274 0-8.298-0.728-11.802-2.018-3.02 7.012-12.548 12.14-23.844 12.14-6.9 0-13.14-1.914-17.642-5.008-4.502 3.094-10.748 5.008-17.646 5.008-6.556 0-12.53-1.738-16.968-4.554-4.53 3.372-11.064 5.492-18.326 5.492-6.796 0-12.946-1.85-17.428-4.856a43.318 43.318 0 0 1-6.368 0.468c-16.35 0-29.59-9.006-29.59-20.12 0-11.104 13.238-20.112 29.59-20.112 0.884 0 1.77 0.028 2.642 0.082 2.094-13.21 18.546-23.494 38.528-23.494z" fill="#E2F4FD" p-id="17337"></path></svg>